<?xml version="1.0" standalone="no"?>
<!DOCTYPE svg PUBLIC "-//W3C//DTD SVG 20010904//EN"
 "http://www.w3.org/TR/2001/REC-SVG-20010904/DTD/svg10.dtd">
<svg version="1.0" xmlns="http://www.w3.org/2000/svg"
 width="512.000000pt" height="512.000000pt" viewBox="0 0 512.000000 512.000000"
 preserveAspectRatio="xMidYMid meet">
<metadata>
Created by potrace 1.14, written by Peter Selinger 2001-2017
</metadata>
<g transform="translate(0.000000,512.000000) scale(0.100000,-0.100000)"
fill="#000000" stroke="none">
<path d="M2379 5036 c-2 -2 -38 -7 -79 -10 -91 -8 -122 -12 -225 -32 -44 -9
-91 -18 -105 -20 -181 -33 -576 -190 -743 -297 -31 -20 -61 -37 -66 -37 -5 0
-11 -3 -13 -7 -1 -5 -30 -26 -63 -47 -171 -112 -388 -312 -529 -486 -42 -52
-80 -99 -84 -105 -81 -111 -171 -262 -238 -400 -21 -44 -39 -82 -40 -85 0 -3
-5 -16 -11 -30 -36 -85 -42 -101 -42 -103 0 -4 -12 -41 -23 -67 -5 -14 -12
-35 -14 -48 -3 -13 -11 -42 -18 -65 -13 -39 -19 -62 -31 -125 -2 -13 -6 -31
-9 -40 -42 -136 -55 -604 -23 -807 10 -60 19 -117 21 -125 1 -8 9 -43 16 -77
7 -35 16 -63 21 -63 5 0 6 -6 3 -13 -4 -11 41 -165 63 -217 3 -8 7 -17 8 -20
1 -3 9 -22 18 -44 9 -21 17 -42 17 -46 0 -12 136 -277 159 -308 11 -17 21 -34
21 -39 0 -6 9 -18 20 -28 11 -10 20 -24 20 -32 0 -7 5 -13 10 -13 6 0 10 -7
10 -15 0 -8 5 -15 10 -15 6 0 10 -6 10 -14 0 -8 3 -16 8 -18 4 -1 32 -34 62
-73 30 -38 59 -76 65 -83 5 -8 64 -69 130 -136 139 -141 242 -226 410 -338
116 -77 398 -223 480 -248 22 -7 45 -16 50 -20 6 -4 44 -17 85 -29 41 -13 86
-26 100 -31 59 -20 224 -56 305 -66 28 -4 53 -8 56 -10 30 -17 481 -26 614
-12 169 18 266 36 415 75 339 89 645 240 934 462 105 80 314 281 381 366 22
28 42 52 45 55 34 32 183 257 229 345 18 33 36 67 40 75 16 27 102 219 106
235 1 6 7 21 12 35 6 14 9 28 6 33 -2 4 1 7 8 7 7 0 9 3 6 7 -4 3 -2 12 4 20
6 7 9 13 5 13 -3 0 1 17 9 38 12 31 48 169 61 237 50 252 54 656 8 877 -2 13
-7 39 -10 58 -3 19 -8 42 -11 50 -3 8 -7 28 -9 44 -2 16 -11 49 -19 73 -8 24
-15 48 -15 53 0 5 -5 21 -11 37 -6 15 -10 28 -9 28 3 0 -31 87 -51 132 -10 24
-19 45 -19 48 0 9 -117 244 -146 295 -31 52 -174 263 -184 270 -4 3 -29 32
-55 65 -69 86 -245 257 -356 347 -361 290 -819 485 -1274 544 -27 3 -59 8 -70
11 -23 5 -461 14 -466 9z m1361 -1207 c70 -21 132 -96 138 -166 6 -59 -4 -84
-189 -468 -23 -49 -43 -92 -44 -95 0 -3 -17 -39 -38 -81 -20 -42 -59 -123 -85
-180 -27 -57 -61 -129 -75 -160 -15 -31 -27 -61 -27 -67 0 -7 -4 -12 -10 -12
-5 0 -10 -6 -10 -13 0 -7 -9 -30 -20 -52 -11 -22 -20 -45 -20 -52 0 -7 -4 -13
-9 -13 -5 0 -13 -10 -17 -22 -4 -13 -19 -49 -35 -80 -15 -32 -24 -58 -21 -58
4 0 2 -4 -4 -8 -5 -4 -21 -29 -33 -57 -13 -27 -36 -77 -52 -111 -52 -112 -92
-142 -324 -244 -66 -29 -148 -65 -183 -81 -35 -16 -65 -29 -68 -29 -2 0 -32
-13 -66 -29 -35 -16 -187 -84 -338 -151 -151 -67 -293 -130 -315 -140 -425
-189 -425 -189 -505 -170 -82 20 -150 104 -150 186 0 41 19 89 104 267 36 75
65 140 65 142 0 3 9 22 20 43 22 40 171 353 171 358 0 2 33 72 74 157 90 187
110 230 108 240 -1 4 2 7 8 7 6 0 9 3 8 8 -1 4 22 57 51 117 29 61 66 138 83
172 42 88 95 139 197 185 47 21 100 45 116 53 17 8 73 33 125 56 52 22 113 49
135 59 22 10 139 62 260 115 121 53 245 108 275 122 30 14 107 48 170 75 63
27 142 62 175 78 233 109 278 122 355 99z"/>
<path d="M2465 2867 c-93 -31 -163 -90 -206 -175 -35 -70 -34 -186 2 -262 34
-71 86 -123 157 -157 48 -23 70 -28 142 -28 73 0 93 4 141 27 70 35 122 85
156 151 38 75 39 188 2 267 -37 78 -88 128 -167 162 -56 25 -173 33 -227 15z"/>
</g>
</svg>
